<svg width="320" height="64" viewBox="0 0 320 64" fill="none" xmlns="http://www.w3.org/2000/svg">
<path fill-rule="evenodd" clip-rule="evenodd" d="M40.0907 42.7867C42.1653 40.9707 43.5173 38.584 44.1547 35.6293H64.6347C63.696 44.0747 60.296 50.912 54.4373 56.1467C48.576 61.3813 41.36 64 32.7947 64C26.5467 64 20.9227 62.6267 15.92 59.8827C10.9173 57.1387 7.01333 53.3253 4.208 48.4427C1.40267 43.56 0 38.08 0 32C0 25.92 1.40267 20.44 4.208 15.5573C7.01333 10.6747 10.9173 6.86133 15.92 4.11733C20.9227 1.37067 26.5467 0 32.7947 0C41.224 0 48.3413 2.52533 54.1467 7.57867C59.9493 12.6293 63.3787 19.2507 64.4267 27.44H44.24C43.384 24.7387 41.92 22.5653 39.8453 20.9173C37.7733 19.272 35.4507 18.448 32.88 18.448C29.3413 18.448 26.488 19.6933 24.32 22.184C22.1467 24.6747 21.064 27.9467 21.064 31.9973C21.064 36.024 22.1573 39.2827 24.3387 41.7733C26.5253 44.264 29.368 45.5067 32.88 45.5067C35.616 45.5067 38.0213 44.6 40.0933 42.7867H40.0907ZM112.784 26.1467C116.76 29.96 118.749 34.8933 118.749 40.9387C118.749 47.8507 116.461 53.424 111.883 57.6533C107.301 61.8853 101.269 64 93.776 64C86.3733 64 80.3547 61.8773 75.7173 57.632C71.0773 53.384 68.76 47.8827 68.76 41.1173C68.76 37.424 69.3973 33.7067 70.6693 29.968C71.9413 26.2293 73.9093 22.1387 76.5733 17.7013L85.9867 2.048L105.88 2.04533L94.7413 20.5147C95.8533 20.456 96.7307 20.4267 97.376 20.4267C103.667 20.4267 108.8 22.3333 112.781 26.1467H112.784ZM99.352 46.6133C100.784 45.1547 101.501 43.264 101.501 40.9387C101.501 38.616 100.784 36.7093 99.352 35.2187C97.9173 33.728 96.0587 32.984 93.7787 32.984C91.496 32.984 89.6347 33.7307 88.2053 35.2187C86.768 36.7093 86.0533 38.616 86.0533 40.9387C86.0533 43.264 86.768 45.1547 88.2027 46.6133C89.6347 48.0747 91.496 48.8053 93.776 48.8053C96.0587 48.8053 97.9173 48.0747 99.3493 46.6133H99.352ZM156.043 29.2267C163.109 31.3173 167.573 37.5707 167.573 45.6533C167.573 50.12 166.032 54 162.992 57.1867C159.971 60.3493 156.181 61.9547 151.728 61.9547H132.459C132.423 61.9543 132.388 61.947 132.356 61.9331C132.323 61.9193 132.294 61.8992 132.269 61.8739C132.244 61.8486 132.225 61.8188 132.211 61.7859C132.198 61.7531 132.192 61.718 132.192 61.6827V2.31733C132.192 2.168 132.309 2.04533 132.459 2.04533H149.432C153.557 2.04533 156.963 3.424 159.547 6.14667C162.203 8.76 163.557 12.2533 163.557 16.512C163.557 22.224 160.723 26.9333 156.043 29.2267ZM161.376 55.6587C164.085 52.8987 165.403 49.6267 165.403 45.6507C165.403 41.2347 164.051 37.616 161.384 34.9013C158.624 32.0933 155.224 30.7253 150.989 30.7253H134.365V59.7413H151.725C155.544 59.7413 158.792 58.368 161.376 55.6613V55.6587ZM134.363 4.25867V28.5147H149.432C152.957 28.5147 155.845 27.3893 158.021 25.1733C160.253 22.9013 161.384 19.9867 161.384 16.512C161.384 9.296 156.469 4.25867 149.432 4.25867H134.365H134.363ZM319.949 61.5253C319.978 61.5654 319.995 61.6126 319.999 61.6618C320.003 61.711 319.993 61.7603 319.971 61.8043C319.949 61.8484 319.915 61.8854 319.873 61.9115C319.831 61.9375 319.783 61.9515 319.733 61.952H317.712C317.669 61.9524 317.626 61.9421 317.587 61.9221C317.549 61.9021 317.515 61.873 317.491 61.8373L295.893 30.9973L286.355 42.2133V61.68C286.355 61.7156 286.349 61.751 286.336 61.7841C286.323 61.8172 286.303 61.8474 286.279 61.873C286.254 61.8985 286.224 61.9189 286.191 61.9329C286.159 61.9469 286.124 61.9543 286.088 61.9547H284.483C284.447 61.9543 284.412 61.947 284.38 61.9331C284.347 61.9193 284.318 61.8992 284.293 61.8739C284.268 61.8486 284.249 61.8188 284.235 61.7859C284.222 61.7531 284.216 61.718 284.216 61.6827V2.31733C284.216 2.168 284.336 2.04533 284.483 2.04533H286.088C286.235 2.04533 286.355 2.168 286.355 2.31733V38.9147L317.333 2.14133C317.359 2.11137 317.39 2.08726 317.425 2.07068C317.461 2.0541 317.5 2.04545 317.539 2.04533H319.661C319.811 2.04533 319.931 2.168 319.931 2.31733C319.931 2.384 319.904 2.44533 319.867 2.49333L297.331 29.2453L319.949 61.5253ZM270.656 2.04533C270.803 2.04533 270.923 2.168 270.923 2.31733V61.6827C270.923 61.718 270.916 61.7531 270.903 61.7859C270.89 61.8188 270.87 61.8486 270.846 61.8739C270.821 61.8992 270.791 61.9193 270.759 61.9331C270.726 61.947 270.691 61.9543 270.656 61.9547H269.917C269.875 61.9549 269.833 61.9449 269.796 61.9253C269.758 61.9058 269.726 61.8775 269.701 61.8427L230.821 6.90933V61.6827C230.822 61.718 230.815 61.7531 230.802 61.7859C230.789 61.8188 230.769 61.8486 230.744 61.8739C230.72 61.8992 230.69 61.9193 230.658 61.9331C230.625 61.947 230.59 61.9543 230.555 61.9547H228.917C228.882 61.9543 228.847 61.947 228.814 61.9331C228.782 61.9193 228.752 61.8992 228.728 61.8739C228.703 61.8486 228.683 61.8188 228.67 61.7859C228.657 61.7531 228.65 61.718 228.651 61.6827V2.31733C228.651 2.168 228.771 2.04533 228.917 2.04533H229.957C229.999 2.04595 230.04 2.05641 230.077 2.07587C230.114 2.09532 230.146 2.12323 230.171 2.15733L268.749 56.664V2.32C268.749 2.17067 268.869 2.048 269.016 2.048H270.656V2.04533ZM218.981 61.5867C218.997 61.6275 219.003 61.6717 218.998 61.7153C218.994 61.7589 218.978 61.8007 218.953 61.837C218.929 61.8732 218.895 61.9029 218.857 61.9234C218.818 61.944 218.775 61.9547 218.731 61.9547H217.029C216.974 61.9543 216.92 61.9366 216.875 61.9041C216.83 61.8716 216.796 61.8259 216.779 61.7733L209.973 43.4187H182.232L175.429 61.7787C175.411 61.8302 175.377 61.8748 175.332 61.9062C175.287 61.9377 175.233 61.9546 175.179 61.9547H173.475C173.431 61.9544 173.387 61.9434 173.349 61.9225C173.31 61.9017 173.277 61.8717 173.252 61.8351C173.228 61.7985 173.213 61.7565 173.208 61.7127C173.204 61.669 173.21 61.6248 173.227 61.584L195.333 2.22133C195.352 2.16979 195.386 2.12525 195.431 2.09376C195.476 2.06226 195.529 2.04536 195.584 2.04533H196.619C196.674 2.045 196.729 2.06204 196.774 2.09407C196.819 2.12611 196.854 2.17153 196.872 2.224L218.979 61.5867H218.981ZM183.029 41.2053H209.179L196.107 6.31733L183.032 41.2053H183.029Z" fill="#242424"/>
</svg>
